<svg width="160" height="184" viewBox="0 0 160 184" fill="none" xmlns="http://www.w3.org/2000/svg">
<rect x="0.97496" y="25.0021" width="130" height="160" rx="10" transform="rotate(-7 0.97496 25.0021)" fill="url(#paint0_linear_1_35)" fill-opacity="0.5"/>
<rect x="9.92546" y="15.843" width="130" height="160" rx="10" transform="rotate(-7 9.92546 15.843)" fill="url(#paint1_linear_1_35)"/>
<rect x="21.1915" y="25.5423" width="110" height="139" rx="5" transform="rotate(-7 21.1915 25.5423)" fill="white"/>
<path d="M60.7865 126.469C77.1781 124.457 91.8412 132.983 109.46 130.82C127.079 128.657 143.549 119.456 143.549 119.456L146.702 145.138C147.039 147.879 145.09 150.373 142.349 150.71L43.0941 162.897C40.3532 163.233 37.8585 161.284 37.522 158.544L35.2369 139.933C35.2369 139.933 44.3948 128.482 60.7865 126.469Z" fill="url(#paint2_linear_1_35)"/>
<path fill-rule="evenodd" clip-rule="evenodd" d="M99.3649 132.451C93.23 133.609 86.5257 135.255 79.252 137.387C86.3763 126.836 91.0751 114.472 93.3485 100.295C95.6218 86.1183 92.8417 70.6319 85.008 53.836C97.1235 64.1398 105.793 75.598 111.018 88.2106C116.242 100.823 118.021 114.59 116.354 129.511C111.163 130.312 105.5 131.292 99.3649 132.451ZM128.29 127.883C125.577 128.182 122.729 128.578 119.747 129.07C120.754 123.848 120.776 117.292 119.813 109.402C118.85 101.512 116.365 92.9636 112.359 83.7561C120.726 90.8502 126.538 97.998 129.796 105.2C133.053 112.401 135.131 119.759 136.028 127.272C133.583 127.379 131.004 127.583 128.29 127.883ZM109.842 145.926C95.4891 148.409 85.6102 146.527 80.205 140.279C88.626 137.949 97.4865 135.979 106.786 134.37C116.086 132.761 125.85 131.653 136.078 131.049C132.94 138.483 124.195 143.442 109.842 145.926Z" fill="black"/>
<path d="M63.7268 108.666C64.0258 111.101 63.7657 113.272 62.9465 115.178C62.1274 117.084 60.8036 118.643 58.9751 119.857C57.1441 121.049 54.884 121.81 52.1949 122.14C49.5057 122.47 47.1286 122.278 45.0636 121.565C42.996 120.83 41.3342 119.637 40.0783 117.986C38.8223 116.334 38.0449 114.291 37.7459 111.856C37.4469 109.421 37.707 107.251 38.5261 105.345C39.3453 103.439 40.6704 101.89 42.5014 100.697C44.3299 99.4843 46.5887 98.7126 49.2778 98.3824C51.9669 98.0522 54.3453 98.2545 56.413 98.9894C58.478 99.703 60.1385 100.885 61.3944 102.537C62.6503 104.188 63.4278 106.231 63.7268 108.666ZM58.2003 109.345C57.9767 107.524 57.1448 106.175 55.7046 105.299C54.2644 104.422 52.3691 104.129 50.0188 104.417C47.6684 104.706 45.9005 105.449 44.7151 106.648C43.5297 107.847 43.0488 109.357 43.2724 111.178C43.496 112.999 44.3279 114.347 45.7681 115.224C47.2083 116.1 49.1036 116.394 51.4539 116.105C53.8043 115.817 55.5721 115.073 56.7576 113.874C57.943 112.676 58.4239 111.166 58.2003 109.345ZM35.0667 86.3597C34.7053 83.4165 35.1961 81.0242 36.539 79.1828C37.8793 77.3202 39.9258 76.2199 42.6785 75.8819C45.41 75.5466 47.6474 76.0886 49.3907 77.5081C51.134 78.9275 52.1799 81.0559 52.5283 83.8933L53.0937 88.4987L60.6847 87.5666L61.4101 93.4743L36.3185 96.5551L35.0667 86.3597ZM47.3405 85.7554C47.1715 84.3791 46.757 83.366 46.0969 82.7163C45.413 82.048 44.5205 81.7814 43.4195 81.9166C42.3184 82.0518 41.5169 82.5264 41.015 83.3403C40.5132 84.1542 40.3454 85.2387 40.5118 86.5938L40.9291 89.9923L47.7578 89.1539L47.3405 85.7554ZM47.8337 65.8774L52.5344 65.3002L51.1187 53.7708L56.4547 53.1156L58.5957 70.5527L33.5041 73.6335L31.4099 56.5776L36.7458 55.9224L38.1147 67.0707L42.4977 66.5325L41.203 55.9877L46.5389 55.3326L47.8337 65.8774ZM55.3728 44.3045L56.0631 49.9263L30.9715 53.0072L30.3436 47.8936L43.5472 35.9555L43.5238 35.7649L29.0723 37.5393L28.3781 31.8858L53.4697 28.8049L54.0586 33.6009L40.894 45.8566L40.9213 46.0789L55.3728 44.3045Z" fill="black"/>
<defs>
<linearGradient id="paint0_linear_1_35" x1="8.47496" y1="30.5021" x2="130.975" y2="185.002" gradientUnits="userSpaceOnUse">
<stop stop-color="#0099FF"/>
<stop offset="1" stop-color="#004699"/>
</linearGradient>
<linearGradient id="paint1_linear_1_35" x1="17.4255" y1="21.343" x2="139.925" y2="175.843" gradientUnits="userSpaceOnUse">
<stop stop-color="#0099FF"/>
<stop offset="1" stop-color="#004699"/>
</linearGradient>
<linearGradient id="paint2_linear_1_35" x1="87.6029" y1="115.116" x2="92.7214" y2="156.803" gradientUnits="userSpaceOnUse">
<stop stop-color="#AACDFF"/>
<stop offset="1" stop-color="#62A1FF" stop-opacity="0"/>
</linearGradient>
</defs>
</svg>
